<svg xmlns="http://www.w3.org/2000/svg" width="32" height="32" viewBox="0 0 32 32" fill="none">
  <!-- Bold coffee cup body -->
  <path d="M9 13H21V21C21 22.5 19.5 24 18 24H12C10.5 24 9 22.5 9 21V13Z"
        fill="#00C896"
        stroke="#00C896"
        stroke-width="3"
        stroke-linecap="round"
        stroke-linejoin="round"/>

  <!-- Bold cup handle -->
  <path d="M21 15H23C24 15 25 16 25 17.5C25 19 24 20 23 20H21"
        stroke="#00C896"
        stroke-width="3"
        stroke-linecap="round"
        stroke-linejoin="round"
        fill="none"/>

  <!-- Bold steam -->
  <path d="M12 7C12 7 12 9 13 10M15 6C15 6 15 8 16 9M18 7C18 7 18 9 19 10"
        stroke="#00C896"
        stroke-width="2.5"
        stroke-linecap="round"/>
</svg>
