<svg xmlns="http://www.w3.org/2000/svg" width="32" height="32" viewBox="0 0 32 32" fill="none">
  <!-- Croissant shape - simple and recognizable -->
  <path d="M8 18C8 14 10 10 14 8C12 6 10 5 8 6C6 7 5 10 6 14C7 16 7 17 8 18Z"
        fill="#00C896"
        stroke="#00C896"
        stroke-width="1.5"
        stroke-linecap="round"
        stroke-linejoin="round"/>
  <path d="M24 18C24 14 22 10 18 8C20 6 22 5 24 6C26 7 27 10 26 14C25 16 25 17 24 18Z"
        fill="#00C896"
        stroke="#00C896"
        stroke-width="1.5"
        stroke-linecap="round"
        stroke-linejoin="round"/>
  <path d="M14 8C15 10 15 14 16 18C17 14 17 10 18 8C17 7 16 7 16 7C16 7 15 7 14 8Z"
        fill="#00C896"
        stroke="#00C896"
        stroke-width="1.5"
        stroke-linecap="round"
        stroke-linejoin="round"/>
  <!-- Texture lines -->
  <path d="M12 13C13 14 14 15 16 16M20 13C19 14 18 15 16 16"
        stroke="white"
        stroke-width="1.5"
        stroke-linecap="round"/>
</svg>
