<svg xmlns="http://www.w3.org/2000/svg" viewBox="0 0 64 64" width="64" height="64">
  <defs>
    <linearGradient id="iconGradient" x1="0%" y1="0%" x2="0%" y2="100%">
      <stop offset="0%" style="stop-color:#FFA366;stop-opacity:1" />
      <stop offset="50%" style="stop-color:#FF8533;stop-opacity:1" />
      <stop offset="100%" style="stop-color:#FF5500;stop-opacity:1" />
    </linearGradient>
    <filter id="shadow">
      <feGaussianBlur in="SourceAlpha" stdDeviation="1.5"/>
      <feOffset dx="0" dy="1" result="offsetblur"/>
      <feComponentTransfer>
        <feFuncA type="linear" slope="0.3"/>
      </feComponentTransfer>
      <feMerge>
        <feMergeNode/>
        <feMergeNode in="SourceGraphic"/>
      </feMerge>
    </filter>
  </defs>
  
  <!-- Pin shape -->
  <path d="M32 8 C22 8, 15 15, 15 25 C15 38, 32 56, 32 56 C32 56, 49 38, 49 25 C49 15, 42 8, 32 8 Z" 
        fill="url(#iconGradient)" 
        stroke="#FFD699" 
        stroke-width="1.5" 
        filter="url(#shadow)"/>
  
  <!-- Shine -->
  <ellipse cx="26" cy="20" rx="6" ry="8" fill="rgba(255,255,255,0.3)"/>
  
  <!-- Letter S -->
  <g transform="translate(32, 28)">
    <path d="M-4,-9 C-6,-9 -7.5,-7.5 -7.5,-5.5 C-7.5,-4 -6.5,-3 -5,-2.5 L-2.5,-1.5 C-1,-1 0,0 0,1.5 C0,3 -1,4 -2.5,4 C-4,4 -5,3 -5,1.5 L-8.5,1.5 C-8.5,5 -6,7.5 -2.5,7.5 C1,7.5 3.5,5 3.5,1.5 C3.5,-0.5 2.5,-2 1,-3 L-1.5,-4 C-3,-4.5 -4,-5.5 -4,-7 C-4,-8.5 -3,-9.5 -1.5,-9.5 C0,-9.5 1,-8.5 1,-7 L4.5,-7 C4.5,-10.5 2,-12.5 -1.5,-12.5 C-3,-12.5 -4,-11.5 -4,-9 Z" 
          fill="#FFFFFF"/>
  </g>
</svg>
